<svg width="24" height="25" viewBox="0 0 24 25" fill="none" xmlns="http://www.w3.org/2000/svg">
<path d="M10.8 23.1798V0.802161C10.2395 0.527509 9.62418 0.383111 9.00001 0.379761C8.15301 0.380623 7.32606 0.637554 6.6277 1.11683C5.92934 1.59611 5.39221 2.27534 5.08681 3.06537C4.19797 3.40935 3.45255 4.04541 2.97301 4.86907C2.49348 5.69272 2.30833 6.65498 2.448 7.59777C2.05626 7.98471 1.744 8.44455 1.5288 8.95137C1.4784 9.07137 1.452 9.20218 1.4088 9.32698C1.35901 9.46219 1.31655 9.59999 1.2816 9.73978C1.16361 10.3219 1.17179 10.9226 1.3056 11.5014C0.902595 11.9322 0.582084 12.4333 0.360001 12.9798L0.342001 13.023C0.223128 13.3247 0.136252 13.638 0.0828001 13.9578C0.0314372 14.2289 0.00373285 14.5039 0 14.7798C0.00360001 15.0678 0.0324001 15.3558 0.0864002 15.639C0.144053 15.981 0.238605 16.3158 0.368401 16.6374C0.375601 16.6542 0.386401 16.6698 0.393601 16.6866C0.528158 16.9947 0.695952 17.2873 0.894001 17.559C1.02 17.7342 1.1568 17.901 1.3044 18.057C1.3908 18.1482 1.482 18.2322 1.5744 18.3162C1.6944 18.4254 1.8204 18.531 1.9524 18.6282C2.0844 18.7254 2.1924 18.7962 2.322 18.8682C2.346 18.8838 2.3688 18.9018 2.3928 18.9162V18.9798C2.39412 19.9957 2.763 20.9769 3.43133 21.742C4.09966 22.5072 5.02228 23.0047 6.02881 23.1426C6.66559 23.7939 7.50066 24.2153 8.40289 24.3407C9.30512 24.466 10.2234 24.2881 11.0136 23.835C10.8781 23.6431 10.8036 23.4147 10.8 23.1798ZM23.9208 13.9638C23.867 13.6442 23.7805 13.331 23.6628 13.029L23.6424 12.9834C23.42 12.4354 23.0987 11.933 22.6944 11.5014C22.8288 10.9226 22.8358 10.3215 22.7148 9.73978C22.6817 9.60461 22.6417 9.47123 22.5948 9.34018C22.554 9.21058 22.5264 9.07617 22.4748 8.95137C22.2597 8.44453 21.9474 7.98469 21.5556 7.59777C21.6951 6.65454 21.5094 5.69194 21.0292 4.86823C20.549 4.04452 19.8027 3.40872 18.9132 3.06537C18.6078 2.27534 18.0707 1.59611 17.3723 1.11683C16.674 0.637554 15.847 0.380623 15 0.379761C14.3759 0.383111 13.7605 0.527509 13.2 0.802161V23.1798C13.1943 23.4155 13.1173 23.6439 12.9792 23.835C13.7694 24.2881 14.6877 24.466 15.59 24.3407C16.4922 24.2153 17.3272 23.7939 17.964 23.1426C18.9706 23.0047 19.8932 22.5072 20.5615 21.742C21.2298 20.9769 21.5987 19.9957 21.6 18.9798V18.921C21.624 18.9066 21.6468 18.8886 21.6708 18.873C21.798 18.7962 21.9204 18.717 22.0404 18.633C22.1604 18.549 22.2972 18.4302 22.4184 18.321C22.5108 18.237 22.602 18.153 22.6884 18.0618C22.8936 17.8442 23.078 17.608 23.2392 17.3562C23.3772 17.145 23.4972 16.923 23.5992 16.6914C23.6064 16.6746 23.6172 16.659 23.6244 16.6422C23.7288 16.3866 23.8116 16.1214 23.8704 15.8514C23.886 15.783 23.8992 15.7134 23.9124 15.6438C23.9676 15.3594 23.9964 15.0702 24 14.7798C23.9973 14.506 23.9708 14.233 23.9208 13.9638Z" fill="black"/>
</svg>
