<svg width="20" height="25" viewBox="0 0 20 25" fill="none" xmlns="http://www.w3.org/2000/svg">
<path fill-rule="evenodd" clip-rule="evenodd" d="M5.1999 1.57976C5.1999 1.2615 5.32633 0.956276 5.55137 0.731233C5.77642 0.506189 6.08164 0.379761 6.3999 0.379761H13.5999C13.9182 0.379761 14.2234 0.506189 14.4484 0.731233C14.6735 0.956276 14.7999 1.2615 14.7999 1.57976H17.1999C17.8364 1.57976 18.4469 1.83262 18.897 2.2827C19.347 2.73279 19.5999 3.34324 19.5999 3.97976V21.9798C19.5999 22.6163 19.347 23.2267 18.897 23.6768C18.4469 24.1269 17.8364 24.3798 17.1999 24.3798H2.7999C2.16338 24.3798 1.55293 24.1269 1.10285 23.6768C0.652759 23.2267 0.399902 22.6163 0.399902 21.9798V3.97976C0.399902 3.34324 0.652759 2.73279 1.10285 2.2827C1.55293 1.83262 2.16338 1.57976 2.7999 1.57976H5.1999ZM12.3999 2.77976H7.5999V5.17976H6.3999C6.08164 5.17976 5.77642 5.30619 5.55137 5.53123C5.32633 5.75628 5.1999 6.0615 5.1999 6.37976C5.1999 6.69802 5.32633 7.00325 5.55137 7.22829C5.77642 7.45333 6.08164 7.57976 6.3999 7.57976H13.5999C13.9182 7.57976 14.2234 7.45333 14.4484 7.22829C14.6735 7.00325 14.7999 6.69802 14.7999 6.37976C14.7999 6.0615 14.6735 5.75628 14.4484 5.53123C14.2234 5.30619 13.9182 5.17976 13.5999 5.17976H12.3999V2.77976ZM5.1999 12.3798C5.1999 12.0615 5.32633 11.7563 5.55137 11.5312C5.77642 11.3062 6.08164 11.1798 6.3999 11.1798H13.5999C13.9182 11.1798 14.2234 11.3062 14.4484 11.5312C14.6735 11.7563 14.7999 12.0615 14.7999 12.3798C14.7999 12.698 14.6735 13.0032 14.4484 13.2283C14.2234 13.4533 13.9182 13.5798 13.5999 13.5798H6.3999C6.08164 13.5798 5.77642 13.4533 5.55137 13.2283C5.32633 13.0032 5.1999 12.698 5.1999 12.3798ZM6.3999 15.9798C6.08164 15.9798 5.77642 16.1062 5.55137 16.3312C5.32633 16.5563 5.1999 16.8615 5.1999 17.1798C5.1999 17.498 5.32633 17.8032 5.55137 18.0283C5.77642 18.2533 6.08164 18.3798 6.3999 18.3798H13.5999C13.9182 18.3798 14.2234 18.2533 14.4484 18.0283C14.6735 17.8032 14.7999 17.498 14.7999 17.1798C14.7999 16.8615 14.6735 16.5563 14.4484 16.3312C14.2234 16.1062 13.9182 15.9798 13.5999 15.9798H6.3999Z" fill="black"/>
</svg>
