<svg width="24" height="20" viewBox="0 0 24 20" fill="none" xmlns="http://www.w3.org/2000/svg">
<path fill-rule="evenodd" clip-rule="evenodd" d="M15.6 0.779785H8.4V19.9798H15.6V0.779785ZM18 19.9798H21.6C22.2365 19.9798 22.847 19.7269 23.2971 19.2768C23.7471 18.8268 24 18.2163 24 17.5798V3.17979C24 2.54327 23.7471 1.93282 23.2971 1.48273C22.847 1.03264 22.2365 0.779785 21.6 0.779785H18V19.9798ZM2.4 0.779785H6V19.9798H2.4C1.76348 19.9798 1.15303 19.7269 0.702944 19.2768C0.252856 18.8268 0 18.2163 0 17.5798V3.17979C0 2.54327 0.252856 1.93282 0.702944 1.48273C1.15303 1.03264 1.76348 0.779785 2.4 0.779785Z" fill="black"/>
</svg>
