<svg width="20" height="25" viewBox="0 0 20 25" fill="none" xmlns="http://www.w3.org/2000/svg">
<path fill-rule="evenodd" clip-rule="evenodd" d="M6.3999 6.37976V0.644961C6.17838 0.758936 5.97596 0.906705 5.7999 1.08296L1.1031 5.77976C0.926847 5.95582 0.779078 6.15824 0.665103 6.37976H6.3999ZM8.7999 6.37976V0.379761H17.1999C17.8364 0.379761 18.4469 0.632617 18.897 1.0827C19.347 1.53279 19.5999 2.14324 19.5999 2.77976V21.9798C19.5999 22.6163 19.347 23.2267 18.897 23.6768C18.4469 24.1269 17.8364 24.3798 17.1999 24.3798H2.7999C2.16338 24.3798 1.55293 24.1269 1.10285 23.6768C0.652759 23.2267 0.399902 22.6163 0.399902 21.9798V8.77976H6.3999C7.03642 8.77976 7.64687 8.5269 8.09696 8.07682C8.54705 7.62673 8.7999 7.01628 8.7999 6.37976ZM7.5999 17.1798C7.5999 16.8615 7.47347 16.5563 7.24843 16.3312C7.02339 16.1062 6.71816 15.9798 6.3999 15.9798C6.08164 15.9798 5.77642 16.1062 5.55137 16.3312C5.32633 16.5563 5.1999 16.8615 5.1999 17.1798V19.5798C5.1999 19.898 5.32633 20.2032 5.55137 20.4283C5.77642 20.6533 6.08164 20.7798 6.3999 20.7798C6.71816 20.7798 7.02339 20.6533 7.24843 20.4283C7.47347 20.2032 7.5999 19.898 7.5999 19.5798V17.1798ZM9.9999 11.1798C10.3182 11.1798 10.6234 11.3062 10.8484 11.5312C11.0735 11.7563 11.1999 12.0615 11.1999 12.3798V19.5798C11.1999 19.898 11.0735 20.2032 10.8484 20.4283C10.6234 20.6533 10.3182 20.7798 9.9999 20.7798C9.68164 20.7798 9.37642 20.6533 9.15137 20.4283C8.92633 20.2032 8.7999 19.898 8.7999 19.5798V12.3798C8.7999 12.0615 8.92633 11.7563 9.15137 11.5312C9.37642 11.3062 9.68164 11.1798 9.9999 11.1798ZM14.7999 15.9798C14.7999 15.6615 14.6735 15.3563 14.4484 15.1312C14.2234 14.9062 13.9182 14.7798 13.5999 14.7798C13.2816 14.7798 12.9764 14.9062 12.7514 15.1312C12.5263 15.3563 12.3999 15.6615 12.3999 15.9798V19.5798C12.3999 19.898 12.5263 20.2032 12.7514 20.4283C12.9764 20.6533 13.2816 20.7798 13.5999 20.7798C13.9182 20.7798 14.2234 20.6533 14.4484 20.4283C14.6735 20.2032 14.7999 19.898 14.7999 19.5798V15.9798Z" fill="black"/>
</svg>
