<svg width="24" height="25" viewBox="0 0 24 25" fill="none" xmlns="http://www.w3.org/2000/svg">
<path d="M2.66667 0.379761C1.95942 0.379761 1.28115 0.660712 0.781048 1.16081C0.280951 1.66091 0 2.33918 0 3.04643V5.71309C0 6.42034 0.280951 7.09861 0.781048 7.59871C1.28115 8.09881 1.95942 8.37976 2.66667 8.37976H8C8.70724 8.37976 9.38552 8.09881 9.88562 7.59871C10.3857 7.09861 10.6667 6.42034 10.6667 5.71309V3.04643C10.6667 2.33918 10.3857 1.66091 9.88562 1.16081C9.38552 0.660712 8.70724 0.379761 8 0.379761H2.66667ZM21.3333 24.3798C22.0406 24.3798 22.7189 24.0988 23.219 23.5987C23.719 23.0986 24 22.4203 24 21.7131V19.0464C24 18.3392 23.719 17.6609 23.219 17.1608C22.7189 16.6607 22.0406 16.3798 21.3333 16.3798H16C15.2928 16.3798 14.6145 16.6607 14.1144 17.1608C13.6143 17.6609 13.3333 18.3392 13.3333 19.0464V21.7131C13.3333 22.4203 13.6143 23.0986 14.1144 23.5987C14.6145 24.0988 15.2928 24.3798 16 24.3798H21.3333ZM2.66667 11.0464C1.95942 11.0464 1.28115 11.3274 0.781048 11.8275C0.280951 12.3276 0 13.0059 0 13.7131V21.7131C0 22.4203 0.280951 23.0986 0.781048 23.5987C1.28115 24.0988 1.95942 24.3798 2.66667 24.3798H8C8.70724 24.3798 9.38552 24.0988 9.88562 23.5987C10.3857 23.0986 10.6667 22.4203 10.6667 21.7131V13.7131C10.6667 13.0059 10.3857 12.3276 9.88562 11.8275C9.38552 11.3274 8.70724 11.0464 8 11.0464H2.66667ZM21.3333 13.7131C22.0406 13.7131 22.7189 13.4321 23.219 12.932C23.719 12.4319 24 11.7537 24 11.0464V3.04643C24 2.33918 23.719 1.66091 23.219 1.16081C22.7189 0.660712 22.0406 0.379761 21.3333 0.379761H16C15.2928 0.379761 14.6145 0.660712 14.1144 1.16081C13.6143 1.66091 13.3333 2.33918 13.3333 3.04643V11.0464C13.3333 11.7537 13.6143 12.4319 14.1144 12.932C14.6145 13.4321 15.2928 13.7131 16 13.7131H21.3333Z" fill="#F6F6F6"/>
</svg>
